<mxfile host="app.diagrams.net" modified="2023-12-22T21:56:22.171Z" agent="Mozilla/5.0 (Windows NT 10.0; Win64; x64) AppleWebKit/537.36 (KHTML, like Gecko) Chrome/119.0.0.0 Safari/537.36 OPR/105.0.0.0 (Edition Yx GX)" version="22.1.11" etag="TE-eLWWFvr4xaObSEhHj" type="github">
  <diagram name="Страница — 1" id="PcRtv5yxNuCORGcznbJM">
    <mxGraphModel>
      <root>
        <mxCell id="0" />
        <mxCell id="1" parent="0" />
      </root>
    </mxGraphModel>
  </diagram>
</mxfile>
